# xmcd
#
# Track frame offsets:
#	150
#	13275
#	25285
#	38710
#	56665
#	78295
#	99730
#	120610
#	138342
#	154532
#	164887
#	182900
#	202872
#	215060
#	232102
#	249760
#	263495
#	275655
#	295017
#	307755
#
# Disc length: 4297 seconds
#
# Revision: 3
# Processed by: cddbd v1.5.2PL0 Copyright (c) Steve Scherf et al.
# Submitted via: dBpowerAMP V4.0
#
DISCID=1810c714
DTITLE=Various Artist - Heart and Soul
DYEAR=1991
DGENRE=R&B Compilation
TTITLE0=Ben E King - Stand By Me
TTITLE1=Drifters - Under The Boardwalk
TTITLE2=Jackson 5 - Never Can Say Goodbye
TTITLE3=Gregory Abbott - Shake You Down
TTITLE4=Kool and The Gang - Cherish
TTITLE5=Billy Paul - Me And Mrs. Jones
TTITLE6=Gladys Knight and The Pips - Midnight Train To Geogia
TTITLE7=Earth, Wind and Fire - After The Love Has Gone
TTITLE8=Harold Melvin and The Blue Notes - If You Don't Know Me By Now
TTITLE9=Louis Armstrong - What A Wonderful World
TTITLE10=Marvin Gaye - Sexual Healing
TTITLE11=Manhattans - Kiss And Say Goodbye
TTITLE12=Otis Redding - (Sittin' On) The Dock Of The Bay
TTITLE13=Brook Benton - Rainy Night In Georgia
TTITLE14=Natalie Cole - Miss You Like Crazy
TTITLE15=Four Tops - Ain't No Woman
TTITLE16=Temptations - My Girl
TTITLE17=Bill Withers - Lean On Me
TTITLE18=Percy Sledge - When A Man Loves A Woman
TTITLE19=Sam and Dave - When Something Is Wrong With My Baby
EXTD=
EXTT0=
EXTT1=
EXTT2=
EXTT3=
EXTT4=
EXTT5=
EXTT6=
EXTT7=
EXTT8=
EXTT9=
EXTT10=
EXTT11=
EXTT12=
EXTT13=
EXTT14=
EXTT15=
EXTT16=
EXTT17=
EXTT18=
EXTT19=
PLAYORDER=
